<svg width="84" height="84" viewBox="0 0 84 84" fill="none" xmlns="http://www.w3.org/2000/svg">
<circle cx="42" cy="42" r="42" fill="#05A1C7"/>
<g clip-path="url(#clip0_313_4)">
<path d="M35 42H28C27.0335 42 26.25 42.7835 26.25 43.75V54.25C26.25 55.2165 27.0335 56 28 56H35C35.9665 56 36.75 55.2165 36.75 54.25V43.75C36.75 42.7835 35.9665 42 35 42Z" stroke="white" stroke-width="2" stroke-linecap="round" stroke-linejoin="round"/>
<path d="M45.5 35H38.5C37.5335 35 36.75 35.7835 36.75 36.75V54.25C36.75 55.2165 37.5335 56 38.5 56H45.5C46.4665 56 47.25 55.2165 47.25 54.25V36.75C47.25 35.7835 46.4665 35 45.5 35Z" stroke="white" stroke-width="2" stroke-linecap="round" stroke-linejoin="round"/>
<path d="M56 28H49C48.0335 28 47.25 28.7835 47.25 29.75V54.25C47.25 55.2165 48.0335 56 49 56H56C56.9665 56 57.75 55.2165 57.75 54.25V29.75C57.75 28.7835 56.9665 28 56 28Z" stroke="white" stroke-width="2" stroke-linecap="round" stroke-linejoin="round"/>
<path d="M28 56H52.5" stroke="white" stroke-width="2" stroke-linecap="round" stroke-linejoin="round"/>
</g>
<defs>
<clipPath id="clip0_313_4">
<rect width="42" height="42" fill="white" transform="translate(21 21)"/>
</clipPath>
</defs>
</svg>
