<svg width="100" height="100" viewBox="0 0 100 100" fill="none" xmlns="http://www.w3.org/2000/svg">
<circle cx="50" cy="50" r="50" fill="#0F1427"/>
<g clip-path="url(#clip0_313_5)">
<path d="M31.125 50.5H33.1667M49.5 32.125V34.1667M65.8333 50.5H67.875M36.4333 37.4333L37.8625 38.8625M62.5667 37.4333L61.1375 38.8625" stroke="white" stroke-width="2" stroke-linecap="round" stroke-linejoin="round"/>
<path d="M43.3748 58.6667C41.6608 57.3811 40.3947 55.5889 39.7558 53.5438C39.117 51.4987 39.1378 49.3044 39.8154 47.2718C40.4929 45.2392 41.7928 43.4713 43.5309 42.2186C45.269 40.9658 47.3573 40.2917 49.4998 40.2917C51.6424 40.2917 53.7306 40.9658 55.4688 42.2186C57.2069 43.4713 58.5068 45.2392 59.1843 47.2718C59.8618 49.3044 59.8827 51.4987 59.2438 53.5438C58.605 55.5889 57.3389 57.3811 55.6248 58.6667C54.8277 59.4557 54.2275 60.4214 53.8728 61.4854C53.5181 62.5495 53.4189 63.6821 53.5832 64.7917C53.5832 65.8746 53.153 66.9132 52.3872 67.679C51.6214 68.4448 50.5828 68.875 49.4998 68.875C48.4169 68.875 47.3783 68.4448 46.6125 67.679C45.8467 66.9132 45.4165 65.8746 45.4165 64.7917C45.5808 63.6821 45.4815 62.5495 45.1268 61.4854C44.7722 60.4214 44.172 59.4557 43.3748 58.6667" stroke="white" stroke-width="2" stroke-linecap="round" stroke-linejoin="round"/>
<path d="M44.8042 60.7083H54.1959" stroke="white" stroke-width="2" stroke-linecap="round" stroke-linejoin="round"/>
</g>
<defs>
<clipPath id="clip0_313_5">
<rect width="49" height="49" fill="white" transform="translate(25 26)"/>
</clipPath>
</defs>
</svg>
